<svg width="30" height="31" viewBox="0 0 30 31" fill="none" xmlns="http://www.w3.org/2000/svg">
<path fill-rule="evenodd" clip-rule="evenodd" d="M8.535 19.465C8.76934 19.6994 8.90098 20.0173 8.90098 20.3487C8.90098 20.6802 8.76934 20.9981 8.535 21.2325L8.0175 21.75H21.9825L21.465 21.2325C21.3456 21.1172 21.2504 20.9793 21.1849 20.8268C21.1194 20.6742 21.0849 20.5102 21.0834 20.3442C21.082 20.1783 21.1136 20.0137 21.1765 19.8601C21.2393 19.7064 21.3321 19.5669 21.4495 19.4495C21.5669 19.3321 21.7064 19.2393 21.8601 19.1765C22.0137 19.1136 22.1783 19.082 22.3442 19.0834C22.5102 19.0849 22.6742 19.1194 22.8268 19.1849C22.9793 19.2504 23.1172 19.3456 23.2325 19.465L25.8838 22.115C26 22.2311 26.0922 22.3689 26.1551 22.5207C26.218 22.6724 26.2504 22.8351 26.2504 22.9994C26.2504 23.1636 26.218 23.3263 26.1551 23.478C26.0922 23.6298 26 23.7677 25.8838 23.8837L23.2325 26.535C22.9967 26.7627 22.681 26.8887 22.3532 26.8858C22.0255 26.883 21.712 26.7515 21.4802 26.5198C21.2485 26.288 21.117 25.9745 21.1142 25.6467C21.1113 25.319 21.2373 25.0033 21.465 24.7675L21.9825 24.25H8.0175L8.535 24.7675C8.65439 24.8828 8.74962 25.0207 8.81513 25.1732C8.88064 25.3257 8.91512 25.4898 8.91656 25.6557C8.918 25.8217 8.88638 25.9863 8.82353 26.1399C8.76068 26.2936 8.66786 26.4331 8.55049 26.5505C8.43313 26.6679 8.29356 26.7607 8.13994 26.8235C7.98632 26.8864 7.82172 26.918 7.65575 26.9166C7.48977 26.9151 7.32575 26.8806 7.17324 26.8151C7.02074 26.7496 6.88281 26.6544 6.7675 26.535L4.11625 23.885C4.00003 23.7689 3.90783 23.631 3.84493 23.4793C3.78202 23.3276 3.74964 23.1649 3.74964 23.0006C3.74964 22.8364 3.78202 22.6737 3.84493 22.5219C3.90783 22.3702 4.00003 22.2323 4.11625 22.1162L6.7675 19.465C7.00191 19.2307 7.31979 19.099 7.65125 19.099C7.9827 19.099 8.30059 19.2307 8.535 19.465ZM18.75 4.25C19.0562 4.25004 19.3517 4.36245 19.5805 4.56589C19.8093 4.76934 19.9554 5.04969 19.9912 5.35375L20 5.5V9.67125C20.6765 9.35094 21.4239 9.20956 22.1706 9.26061C22.9174 9.31166 23.6385 9.55345 24.2651 9.96285C24.8918 10.3722 25.4029 10.9356 25.7496 11.5989C26.0963 12.2623 26.267 13.0035 26.2454 13.7517C26.2238 14.4999 26.0106 15.23 25.6262 15.8722C25.2418 16.5145 24.6991 17.0474 24.0499 17.4199C23.4007 17.7925 22.6668 17.9923 21.9183 18.0002C21.1699 18.0081 20.4319 17.8238 19.775 17.465C19.6303 17.6734 19.4255 17.8328 19.188 17.922C18.9504 18.0111 18.6914 18.0258 18.4453 17.964C18.1992 17.9023 17.9777 17.767 17.8104 17.5762C17.6431 17.3855 17.5379 17.1483 17.5087 16.8962L17.5 16.75V5.5C17.5 5.16848 17.6317 4.85054 17.8661 4.61612C18.1005 4.3817 18.4185 4.25 18.75 4.25ZM10 4.25C10.4037 4.24992 10.7994 4.36287 11.1423 4.57605C11.4851 4.78923 11.7615 5.09414 11.94 5.45625L12.0162 5.63L16.165 16.2975C16.278 16.5942 16.2739 16.9227 16.1535 17.2165C16.0331 17.5102 15.8054 17.7472 15.5167 17.8792C15.228 18.0112 14.8999 18.0284 14.5989 17.9274C14.298 17.8263 14.0468 17.6145 13.8962 17.335L13.835 17.2025L12.6862 14.25H7.31375L6.165 17.2025C6.04926 17.4993 5.82453 17.7408 5.53674 17.8775C5.24894 18.0142 4.91981 18.0359 4.61658 17.938C4.31336 17.8402 4.05894 17.6303 3.90531 17.3512C3.75168 17.072 3.71043 16.7448 3.79 16.4362L3.835 16.2975L7.98375 5.63C8.14152 5.22352 8.41849 4.87423 8.7783 4.62796C9.13812 4.38169 9.56398 4.24994 10 4.25ZM21.875 11.75C21.3777 11.75 20.9008 11.9475 20.5492 12.2992C20.1975 12.6508 20 13.1277 20 13.625C20 14.1223 20.1975 14.5992 20.5492 14.9508C20.9008 15.3025 21.3777 15.5 21.875 15.5C22.3723 15.5 22.8492 15.3025 23.2008 14.9508C23.5525 14.5992 23.75 14.1223 23.75 13.625C23.75 13.1277 23.5525 12.6508 23.2008 12.2992C22.8492 11.9475 22.3723 11.75 21.875 11.75ZM10 7.34125L8.28625 11.75H11.715L10 7.34125Z" fill="#D9FF85"/>
</svg>
