<svg width="30" height="31" viewBox="0 0 30 31" fill="none" xmlns="http://www.w3.org/2000/svg">
<path d="M11.3838 7.31C12.1313 5.1225 15.1538 5.05625 16.04 7.11125L16.115 7.31125L17.1238 10.2613C17.3549 10.9378 17.7285 11.5569 18.2193 12.0768C18.7101 12.5967 19.3066 13.0053 19.9688 13.275L20.24 13.3762L23.19 14.3838C25.3775 15.1313 25.4438 18.1537 23.39 19.04L23.19 19.115L20.24 20.1238C19.5632 20.3548 18.9439 20.7283 18.4238 21.2191C17.9037 21.7099 17.4949 22.3065 17.225 22.9688L17.1238 23.2388L16.1163 26.19C15.3688 28.3775 12.3463 28.4438 11.4613 26.39L11.3838 26.19L10.3763 23.24C10.1452 22.5632 9.77172 21.9439 9.28093 21.4238C8.79014 20.9037 8.19349 20.4949 7.53125 20.225L7.26125 20.1238L4.31125 19.1162C2.1225 18.3687 2.05625 15.3462 4.11125 14.4612L4.31125 14.3838L7.26125 13.3762C7.93779 13.1451 8.55689 12.7715 9.07678 12.2807C9.59667 11.7899 10.0053 11.1934 10.275 10.5312L10.3763 10.2613L11.3838 7.31ZM13.75 8.1175L12.7425 11.0675C12.3905 12.0991 11.8178 13.0416 11.0644 13.8294C10.311 14.6171 9.39494 15.2312 8.38 15.6287L8.0675 15.7425L5.1175 16.75L8.0675 17.7575C9.09913 18.1095 10.0416 18.6822 10.8294 19.4356C11.6171 20.189 12.2312 21.1051 12.6288 22.12L12.7425 22.4325L13.75 25.3825L14.7575 22.4325C15.1095 21.4009 15.6822 20.4584 16.4356 19.6706C17.189 18.8829 18.1051 18.2688 19.12 17.8713L19.4325 17.7587L22.3825 16.75L19.4325 15.7425C18.4009 15.3905 17.4584 14.8178 16.6706 14.0644C15.8829 13.311 15.2688 12.3949 14.8713 11.38L14.7588 11.0675L13.75 8.1175ZM23.75 3C23.9839 3 24.213 3.0656 24.4114 3.18934C24.6099 3.31308 24.7696 3.49 24.8725 3.7L24.9325 3.84625L25.37 5.12875L26.6538 5.56625C26.8881 5.64587 27.0935 5.79327 27.244 5.98977C27.3945 6.18627 27.4833 6.42302 27.4991 6.67003C27.5149 6.91703 27.457 7.16316 27.3328 7.37723C27.2085 7.5913 27.0236 7.76367 26.8013 7.8725L26.6538 7.9325L25.3713 8.37L24.9338 9.65375C24.854 9.88804 24.7065 10.0934 24.5099 10.2437C24.3133 10.3941 24.0765 10.4827 23.8296 10.4984C23.5826 10.5141 23.3365 10.4561 23.1225 10.3317C22.9085 10.2074 22.7362 10.0223 22.6275 9.8L22.5675 9.65375L22.13 8.37125L20.8463 7.93375C20.6119 7.85413 20.4065 7.70673 20.256 7.51023C20.1055 7.31373 20.0167 7.07698 20.0009 6.82997C19.9851 6.58297 20.043 6.33684 20.1672 6.12277C20.2915 5.9087 20.4765 5.73633 20.6988 5.6275L20.8463 5.5675L22.1288 5.13L22.5663 3.84625C22.6505 3.59928 22.81 3.38489 23.0223 3.23312C23.2346 3.08136 23.489 2.99984 23.75 3Z" fill="#D9FF85"/>
</svg>
