<svg width="32" height="33" viewBox="0 0 32 33" fill="none" xmlns="http://www.w3.org/2000/svg">
<path d="M16 2.94189C23.364 2.94189 29.3333 8.91123 29.3333 16.2752C29.3333 23.6392 23.364 29.6086 16 29.6086C8.63599 29.6086 2.66666 23.6392 2.66666 16.2752C2.66666 8.91123 8.63599 2.94189 16 2.94189ZM16 5.60856C13.171 5.60856 10.4579 6.73237 8.45752 8.73276C6.45713 10.7331 5.33332 13.4463 5.33332 16.2752C5.33332 19.1042 6.45713 21.8173 8.45752 23.8177C10.4579 25.8181 13.171 26.9419 16 26.9419C18.829 26.9419 21.5421 25.8181 23.5425 23.8177C25.5428 21.8173 26.6667 19.1042 26.6667 16.2752C26.6667 13.4463 25.5428 10.7331 23.5425 8.73276C21.5421 6.73237 18.829 5.60856 16 5.60856ZM16.0067 10.6192C16.2361 10.3895 16.5415 10.2513 16.8655 10.2307C17.1895 10.2101 17.51 10.3084 17.7667 10.5072L17.892 10.6192L22.6053 15.3326C22.8349 15.5622 22.9728 15.8676 22.9932 16.1917C23.0135 16.5157 22.915 16.836 22.716 17.0926L22.6053 17.2179L17.892 21.9326C17.6526 22.1742 17.3299 22.3153 16.9899 22.3268C16.65 22.3383 16.3184 22.2195 16.0632 21.9946C15.808 21.7697 15.6484 21.4558 15.6171 21.1171C15.5857 20.7783 15.685 20.4405 15.8947 20.1726L16.0067 20.0472L18.444 17.6072H10.3427C10.0047 17.6039 9.68069 17.4724 9.43603 17.2393C9.19138 17.0062 9.04436 16.6888 9.02472 16.3515C9.00507 16.0141 9.11426 15.6819 9.33021 15.4219C9.54615 15.162 9.85274 14.9938 10.188 14.9512L10.3427 14.9419H18.444L16.0067 12.5046C15.7567 12.2545 15.6163 11.9154 15.6163 11.5619C15.6163 11.2083 15.7567 10.8693 16.0067 10.6192Z" fill="#D9FF85"/>
</svg>
