<svg width="35" height="36" viewBox="0 0 35 36" fill="none" xmlns="http://www.w3.org/2000/svg">
<path fill-rule="evenodd" clip-rule="evenodd" d="M13.125 4.76965C11.5779 4.76965 10.0942 5.38423 9.00021 6.47819C7.90625 7.57216 7.29167 9.05589 7.29167 10.603V12.2451C6.04007 12.5695 4.93162 13.3003 4.14032 14.3228C3.34902 15.3453 2.91967 16.6017 2.91967 17.8947C2.91967 19.1876 3.34902 20.444 4.14032 21.4665C4.93162 22.489 6.04007 23.2198 7.29167 23.5442V25.1863C7.29159 26.3712 7.65237 27.5281 8.32597 28.5029C8.99958 29.4777 9.95407 30.2242 11.0624 30.6432C12.1708 31.0622 13.3805 31.1337 14.5305 30.8482C15.6805 30.5627 16.7163 29.9337 17.5 29.0451C18.2837 29.9337 19.3195 30.5627 20.4695 30.8482C21.6195 31.1337 22.8292 31.0622 23.9376 30.6432C25.0459 30.2242 26.0004 29.4777 26.674 28.5029C27.3476 27.5281 27.7084 26.3712 27.7083 25.1863V23.5442C28.9599 23.2198 30.0684 22.489 30.8597 21.4665C31.651 20.444 32.0803 19.1876 32.0803 17.8947C32.0803 16.6017 31.651 15.3453 30.8597 14.3228C30.0684 13.3003 28.9599 12.5695 27.7083 12.2451V10.603C27.7084 9.41808 27.3476 8.26125 26.674 7.28644C26.0004 6.31162 25.0459 5.56506 23.9376 5.1461C22.8292 4.72714 21.6195 4.65565 20.4695 4.94113C19.3195 5.22662 18.2837 5.85556 17.5 6.74423C16.9526 6.1236 16.2793 5.62654 15.525 5.2861C14.7707 4.94565 13.9526 4.76961 13.125 4.76965ZM24.7917 13.5197V10.603C24.7917 9.82944 24.4844 9.08757 23.9374 8.54059C23.3904 7.99361 22.6486 7.68632 21.875 7.68632C21.1015 7.68632 20.3596 7.99361 19.8126 8.54059C19.2656 9.08757 18.9583 9.82944 18.9583 10.603V17.2165C19.8452 16.705 20.8512 16.4359 21.875 16.4363C22.2618 16.4363 22.6327 16.59 22.9062 16.8635C23.1797 17.1369 23.3333 17.5079 23.3333 17.8947C23.3333 18.2814 23.1797 18.6524 22.9062 18.9258C22.6327 19.1993 22.2618 19.353 21.875 19.353C21.1015 19.353 20.3596 19.6603 19.8126 20.2073C19.2656 20.7542 18.9583 21.4961 18.9583 22.2697V25.1863C18.9583 25.9599 19.2656 26.7017 19.8126 27.2487C20.3596 27.7957 21.1015 28.103 21.875 28.103C22.6486 28.103 23.3904 27.7957 23.9374 27.2487C24.4844 26.7017 24.7917 25.9599 24.7917 25.1863V23.5442C24.6277 23.5017 24.4657 23.4521 24.306 23.3955C23.9413 23.2667 23.6427 22.9983 23.4759 22.6493C23.309 22.3003 23.2877 21.8994 23.4165 21.5347C23.5453 21.1699 23.8137 20.8713 24.1626 20.7045C24.5116 20.5376 24.9126 20.5163 25.2773 20.6451C25.6777 20.7864 26.1041 20.8386 26.5268 20.798C26.9495 20.7574 27.3582 20.625 27.7244 20.41C28.0905 20.1951 28.4054 19.9028 28.6469 19.5536C28.8884 19.2043 29.0507 18.8065 29.1226 18.3881C29.1944 17.9696 29.174 17.5404 29.0628 17.1307C28.9515 16.7209 28.7522 16.3403 28.4786 16.0156C28.2051 15.6908 27.8639 15.4297 27.479 15.2505C27.094 15.0713 26.6746 14.9783 26.25 14.978C25.8632 14.978 25.4923 14.8243 25.2188 14.5508C24.9453 14.2774 24.7917 13.9064 24.7917 13.5197ZM13.125 19.353C13.8985 19.353 14.6404 19.6603 15.1874 20.2073C15.7344 20.7542 16.0417 21.4961 16.0417 22.2697V25.1863C16.0417 25.9599 15.7344 26.7017 15.1874 27.2487C14.6404 27.7957 13.8985 28.103 13.125 28.103C12.3515 28.103 11.6096 27.7957 11.0626 27.2487C10.5156 26.7017 10.2083 25.9599 10.2083 25.1863V23.5442C10.3736 23.5015 10.5355 23.4519 10.694 23.3955C11.0587 23.2667 11.3573 22.9983 11.5241 22.6493C11.691 22.3003 11.7123 21.8994 11.5835 21.5347C11.4547 21.1699 11.1863 20.8713 10.8374 20.7045C10.4884 20.5376 10.0874 20.5163 9.72271 20.6451C9.3223 20.7864 8.89587 20.8386 8.47321 20.798C8.05054 20.7574 7.64184 20.625 7.27565 20.41C6.90946 20.1951 6.59461 19.9028 6.35311 19.5536C6.11161 19.2043 5.94927 18.8065 5.87744 18.3881C5.80561 17.9696 5.82602 17.5404 5.93724 17.1307C6.04846 16.7209 6.24782 16.3403 6.52137 16.0156C6.79493 15.6908 7.1361 15.4297 7.52103 15.2505C7.90597 15.0713 8.32539 14.9783 8.75 14.978C9.13678 14.978 9.50771 14.8243 9.7812 14.5508C10.0547 14.2774 10.2083 13.9064 10.2083 13.5197V10.603C10.2083 9.82944 10.5156 9.08757 11.0626 8.54059C11.6096 7.99361 12.3515 7.68632 13.125 7.68632C13.8985 7.68632 14.6404 7.99361 15.1874 8.54059C15.7344 9.08757 16.0417 9.82944 16.0417 10.603V17.2165C15.1548 16.705 14.1488 16.4359 13.125 16.4363C12.7382 16.4363 12.3673 16.59 12.0938 16.8635C11.8203 17.1369 11.6667 17.5079 11.6667 17.8947C11.6667 18.2814 11.8203 18.6524 12.0938 18.9258C12.3673 19.1993 12.7382 19.353 13.125 19.353Z" fill="#D9FF85"/>
</svg>
