<svg width="30" height="31" viewBox="0 0 30 31" fill="none" xmlns="http://www.w3.org/2000/svg">
<path d="M22.5 13C23.4623 12.9999 24.4042 13.2776 25.2126 13.7996C26.021 14.3216 26.6616 15.0658 27.0575 15.9429C27.4534 16.82 27.5878 17.7926 27.4446 18.7442C27.3013 19.6958 26.8866 20.5858 26.25 21.3075V26.5475C26.25 26.7819 26.1901 27.0124 26.076 27.2172C25.9619 27.4219 25.7973 27.5941 25.5979 27.7173C25.3985 27.8406 25.171 27.9108 24.9368 27.9213C24.7026 27.9319 24.4697 27.8823 24.26 27.7775L22.5 26.8975L20.74 27.7775C20.5303 27.8823 20.2974 27.9319 20.0632 27.9213C19.829 27.9108 19.6015 27.8406 19.4021 27.7173C19.2027 27.5941 19.0381 27.4219 18.924 27.2172C18.8099 27.0124 18.75 26.7819 18.75 26.5475V21.3075C18.1134 20.5858 17.6987 19.6958 17.5554 18.7442C17.4122 17.7926 17.5466 16.82 17.9425 15.9429C18.3384 15.0658 18.979 14.3216 19.7874 13.7996C20.5958 13.2776 21.5377 12.9999 22.5 13ZM25 5.5C25.663 5.5 26.2989 5.76339 26.7678 6.23223C27.2366 6.70107 27.5 7.33696 27.5 8V10.5C27.5 10.8315 27.3683 11.1495 27.1339 11.3839C26.8995 11.6183 26.5815 11.75 26.25 11.75C25.9185 11.75 25.6005 11.6183 25.3661 11.3839C25.1317 11.1495 25 10.8315 25 10.5V8H5V23H15C15.3315 23 15.6495 23.1317 15.8839 23.3661C16.1183 23.6005 16.25 23.9185 16.25 24.25C16.25 24.5815 16.1183 24.8995 15.8839 25.1339C15.6495 25.3683 15.3315 25.5 15 25.5H5C4.33696 25.5 3.70107 25.2366 3.23223 24.7678C2.76339 24.2989 2.5 23.663 2.5 23V8C2.5 7.33696 2.76339 6.70107 3.23223 6.23223C3.70107 5.76339 4.33696 5.5 5 5.5H25ZM23.75 22.8425C22.9301 23.0542 22.0699 23.0542 21.25 22.8425V24.7275L21.9412 24.3825C22.1147 24.2958 22.306 24.2507 22.5 24.2507C22.694 24.2507 22.8853 24.2958 23.0588 24.3825L23.75 24.7275V22.8425ZM22.5 15.5C21.837 15.5 21.2011 15.7634 20.7322 16.2322C20.2634 16.7011 20 17.337 20 18C20 18.663 20.2634 19.2989 20.7322 19.7678C21.2011 20.2366 21.837 20.5 22.5 20.5C23.163 20.5 23.7989 20.2366 24.2678 19.7678C24.7366 19.2989 25 18.663 25 18C25 17.337 24.7366 16.7011 24.2678 16.2322C23.7989 15.7634 23.163 15.5 22.5 15.5ZM11.25 16.75C11.5686 16.7504 11.875 16.8723 12.1067 17.0911C12.3384 17.3098 12.4778 17.6087 12.4965 17.9267C12.5151 18.2448 12.4117 18.558 12.2072 18.8023C12.0027 19.0466 11.7126 19.2036 11.3962 19.2413L11.25 19.25H8.75C8.4314 19.2496 8.12496 19.1277 7.89329 18.9089C7.66162 18.6902 7.52221 18.3913 7.50354 18.0733C7.48486 17.7552 7.58834 17.442 7.79283 17.1977C7.99732 16.9534 8.28738 16.7964 8.60375 16.7588L8.75 16.75H11.25ZM16.25 11.75C16.5815 11.75 16.8995 11.8817 17.1339 12.1161C17.3683 12.3505 17.5 12.6685 17.5 13C17.5 13.3315 17.3683 13.6495 17.1339 13.8839C16.8995 14.1183 16.5815 14.25 16.25 14.25H8.75C8.41848 14.25 8.10054 14.1183 7.86612 13.8839C7.6317 13.6495 7.5 13.3315 7.5 13C7.5 12.6685 7.6317 12.3505 7.86612 12.1161C8.10054 11.8817 8.41848 11.75 8.75 11.75H16.25Z" fill="#D9FF85"/>
</svg>
