<svg width="30" height="31" viewBox="0 0 30 31" fill="none" xmlns="http://www.w3.org/2000/svg">
<path d="M13.2325 3.12512C13.675 2.68322 14.267 2.42319 14.8918 2.39635C15.5166 2.36951 16.1287 2.5778 16.6075 2.98012L16.7675 3.12637L19.1425 5.50012H22.5C23.1305 5.50024 23.7377 5.73859 24.1999 6.16742C24.6621 6.59625 24.9452 7.1839 24.9925 7.81262L25 8.00012V11.3576L27.375 13.7326C27.8173 14.1752 28.0775 14.7675 28.1043 15.3925C28.1312 16.0176 27.9227 16.63 27.52 17.1089L27.3737 17.2676L24.9987 19.6426V23.0001C24.9989 23.6308 24.7607 24.2383 24.3319 24.7008C23.903 25.1633 23.3152 25.4466 22.6862 25.4939L22.5 25.5001H19.1437L16.7688 27.8751C16.3262 28.3174 15.7339 28.5776 15.1088 28.6045C14.4838 28.6313 13.8713 28.4228 13.3925 28.0201L13.2338 27.8751L10.8588 25.5001H7.5C6.86928 25.5003 6.26179 25.2621 5.79932 24.8333C5.33684 24.4044 5.05355 23.8166 5.00625 23.1876L5 23.0001V19.6426L2.625 17.2676C2.18274 16.8251 1.9225 16.2328 1.89565 15.6077C1.86881 14.9826 2.07731 14.3702 2.48 13.8914L2.625 13.7326L5 11.3576V8.00012C5.00012 7.36962 5.23846 6.76244 5.6673 6.30023C6.09613 5.83802 6.68377 5.55491 7.3125 5.50762L7.5 5.50012H10.8575L13.2325 3.12512ZM15 4.89512L12.625 7.27012C12.2098 7.68469 11.662 7.94 11.0775 7.99137L10.8575 8.00012H7.5V11.3576C7.50015 11.945 7.29348 12.5137 6.91625 12.9639L6.7675 13.1264L4.3925 15.5014L6.7675 17.8751C7.18252 18.2902 7.43829 18.838 7.49 19.4226L7.5 19.6426V23.0001H10.8575C11.4449 23 12.0135 23.2066 12.4637 23.5839L12.6263 23.7326L15 26.1076L17.375 23.7326C17.79 23.3176 18.3378 23.0618 18.9225 23.0101L19.1425 23.0001H22.5V19.6426C22.4998 19.0553 22.7065 18.4866 23.0837 18.0364L23.2325 17.8739L25.6075 15.5001L23.2325 13.1251C22.8175 12.7101 22.5617 12.1623 22.51 11.5776L22.5 11.3576V8.00012H19.1425C18.5551 8.00027 17.9865 7.79361 17.5363 7.41637L17.3737 7.26762L14.9987 4.89262L15 4.89512ZM18.85 11.7301C19.0749 11.5059 19.3768 11.3758 19.6942 11.3661C20.0117 11.3564 20.3209 11.4679 20.5591 11.6779C20.7973 11.888 20.9466 12.1808 20.9767 12.497C21.0069 12.8131 20.9155 13.1289 20.7212 13.3801L20.6162 13.4976L14.5162 19.5976C14.2781 19.8361 13.9606 19.9788 13.6242 19.9986C13.2878 20.0184 12.9558 19.914 12.6912 19.7051L12.5712 19.5989L9.56625 16.5939C9.33968 16.3694 9.20746 16.0669 9.19665 15.7482C9.18583 15.4295 9.29725 15.1187 9.50808 14.8794C9.71892 14.6401 10.0132 14.4905 10.3308 14.4611C10.6483 14.4317 10.9651 14.5248 11.2162 14.7214L11.3338 14.8251L13.5437 17.0351L18.85 11.7301Z" fill="#D9FF85"/>
</svg>
