<svg width="30" height="31" viewBox="0 0 30 31" fill="none" xmlns="http://www.w3.org/2000/svg">
<path fill-rule="evenodd" clip-rule="evenodd" d="M12.5 3C15.2775 3 19.6963 4.385 21.1863 8.855C21.7313 10.49 21.6613 11.9462 21.4675 13.3812L21.1413 15.5462C20.91 17.1775 20.7425 19.1087 21.0788 21.75H22.5C22.8315 21.75 23.1495 21.8817 23.3839 22.1161C23.6183 22.3505 23.75 22.6685 23.75 23V26.75C23.75 27.0815 23.6183 27.3995 23.3839 27.6339C23.1495 27.8683 22.8315 28 22.5 28H7.5C7.16848 28 6.85054 27.8683 6.61612 27.6339C6.3817 27.3995 6.25 27.0815 6.25 26.75V23C6.25 22.6685 6.3817 22.3505 6.61612 22.1161C6.85054 21.8817 7.16848 21.75 7.5 21.75H8.8825C9.1725 20.32 10.0075 18.3525 12.0875 16.305C12.315 16.08 12.45 15.8212 12.5063 15.565C12.0788 15.8362 11.6525 16.0875 11.2438 16.3162L10.6413 16.6437L10.075 16.9375L9.55375 17.1962L8.8825 17.5112L8.52375 17.6725L8.375 17.7375C8.03325 17.8857 7.65473 17.9273 7.28896 17.8568C6.92319 17.7863 6.58722 17.6071 6.325 17.3425L4.47875 15.4962C4.17205 15.1898 3.98102 14.7866 3.93817 14.3551C3.89532 13.9237 4.00331 13.4908 4.24375 13.13L8.5575 6.66L7.6325 4.81C7.537 4.61943 7.49183 4.4076 7.50127 4.19465C7.51071 3.9817 7.57445 3.7747 7.68643 3.59332C7.79841 3.41195 7.95492 3.26222 8.14107 3.15837C8.32722 3.05452 8.53684 3.00001 8.75 3H12.5ZM21.25 24.25H8.75V25.5H21.25V24.25ZM12.5 5.5H10.7725L11.1175 6.19125C11.2034 6.36306 11.2485 6.55235 11.2494 6.74442C11.2502 6.93649 11.2068 7.12617 11.1225 7.29875L11.04 7.44375L6.60875 14.0912L7.78375 15.2662L8.24625 15.05L8.50625 14.925L9.07625 14.6412C10.0738 14.13 11.2838 13.4412 12.3613 12.6362C12.6017 12.4505 12.9016 12.3588 13.2048 12.3781C13.508 12.3974 13.7938 12.5265 14.0088 12.7412C15.515 14.2475 15.25 16.545 13.99 17.9312L13.84 18.0875C12.485 19.4212 11.8275 20.6462 11.5163 21.57L11.4588 21.75H18.5613C18.314 19.6853 18.3333 17.5973 18.6188 15.5375L18.715 14.855L18.9275 13.46C19.15 11.96 19.2325 10.9012 18.815 9.645C17.8025 6.615 14.7213 5.5 12.5 5.5ZM11.25 9.25C11.5815 9.25 11.8995 9.3817 12.1339 9.61612C12.3683 9.85054 12.5 10.1685 12.5 10.5C12.5 10.8315 12.3683 11.1495 12.1339 11.3839C11.8995 11.6183 11.5815 11.75 11.25 11.75C10.9185 11.75 10.6005 11.6183 10.3661 11.3839C10.1317 11.1495 10 10.8315 10 10.5C10 10.1685 10.1317 9.85054 10.3661 9.61612C10.6005 9.3817 10.9185 9.25 11.25 9.25Z" fill="#D9FF85"/>
</svg>
