<svg width="30" height="31" viewBox="0 0 30 31" fill="none" xmlns="http://www.w3.org/2000/svg">
<path fill-rule="evenodd" clip-rule="evenodd" d="M13.75 6.75C13.75 6.08696 13.4866 5.45107 13.0178 4.98223C12.5489 4.51339 11.913 4.25 11.25 4.25H6.25C5.58696 4.25 4.95107 4.51339 4.48223 4.98223C4.01339 5.45107 3.75 6.08696 3.75 6.75V11.75C3.75 12.413 4.01339 13.0489 4.48223 13.5178C4.95107 13.9866 5.58696 14.25 6.25 14.25H11.25C11.913 14.25 12.5489 13.9866 13.0178 13.5178C13.4866 13.0489 13.75 12.413 13.75 11.75V6.75ZM6.25 6.75H11.25V11.75H6.25V6.75ZM26.25 6.75C26.25 6.08696 25.9866 5.45107 25.5178 4.98223C25.0489 4.51339 24.413 4.25 23.75 4.25H18.75C18.087 4.25 17.4511 4.51339 16.9822 4.98223C16.5134 5.45107 16.25 6.08696 16.25 6.75V11.75C16.25 12.413 16.5134 13.0489 16.9822 13.5178C17.4511 13.9866 18.087 14.25 18.75 14.25H23.75C24.413 14.25 25.0489 13.9866 25.5178 13.5178C25.9866 13.0489 26.25 12.413 26.25 11.75V6.75ZM18.75 6.75H23.75V11.75H18.75V6.75ZM11.25 16.75C11.913 16.75 12.5489 17.0134 13.0178 17.4822C13.4866 17.9511 13.75 18.587 13.75 19.25V24.25C13.75 24.913 13.4866 25.5489 13.0178 26.0178C12.5489 26.4866 11.913 26.75 11.25 26.75H6.25C5.58696 26.75 4.95107 26.4866 4.48223 26.0178C4.01339 25.5489 3.75 24.913 3.75 24.25V19.25C3.75 18.587 4.01339 17.9511 4.48223 17.4822C4.95107 17.0134 5.58696 16.75 6.25 16.75H11.25ZM11.25 19.25H6.25V24.25H11.25V19.25ZM16.25 21.75C16.25 21.4185 16.3817 21.1005 16.6161 20.8661C16.8505 20.6317 17.1685 20.5 17.5 20.5H20V18C20 17.6685 20.1317 17.3505 20.3661 17.1161C20.6005 16.8817 20.9185 16.75 21.25 16.75C21.5815 16.75 21.8995 16.8817 22.1339 17.1161C22.3683 17.3505 22.5 17.6685 22.5 18V20.5H25C25.3315 20.5 25.6495 20.6317 25.8839 20.8661C26.1183 21.1005 26.25 21.4185 26.25 21.75C26.25 22.0815 26.1183 22.3995 25.8839 22.6339C25.6495 22.8683 25.3315 23 25 23H22.5V25.5C22.5 25.8315 22.3683 26.1495 22.1339 26.3839C21.8995 26.6183 21.5815 26.75 21.25 26.75C20.9185 26.75 20.6005 26.6183 20.3661 26.3839C20.1317 26.1495 20 25.8315 20 25.5V23H17.5C17.1685 23 16.8505 22.8683 16.6161 22.6339C16.3817 22.3995 16.25 22.0815 16.25 21.75Z" fill="#D9FF85"/>
</svg>
