<svg width="30" height="31" viewBox="0 0 30 31" fill="none" xmlns="http://www.w3.org/2000/svg">
<path fill-rule="evenodd" clip-rule="evenodd" d="M25.5962 4.88861C25.9445 5.23684 26.2208 5.65027 26.4093 6.10528C26.5978 6.56029 26.6948 7.04798 26.6948 7.54049C26.6948 8.033 26.5978 8.52069 26.4093 8.9757C26.2208 9.43071 25.9445 9.84413 25.5962 10.1924L23.68 12.1086C24.0156 12.8068 24.126 13.5919 23.9958 14.3555C23.8657 15.1192 23.5016 15.8235 22.9537 16.3711L22.06 17.2636C21.5912 17.7323 20.9554 17.9956 20.2925 17.9956C19.6296 17.9956 18.9938 17.7323 18.525 17.2636L10.4187 25.3699C10.0705 25.7183 9.65694 25.9946 9.20182 26.1831C8.74669 26.3717 8.25888 26.4687 7.76625 26.4686H5.51625C5.11843 26.4686 4.73689 26.3106 4.45559 26.0293C4.17429 25.748 4.01625 25.3664 4.01625 24.9686V22.7186C4.01636 22.2259 4.11356 21.738 4.3023 21.2829C4.49105 20.8278 4.76763 20.4143 5.11625 20.0661L13.2212 11.9599C12.7526 11.491 12.4893 10.8553 12.4893 10.1924C12.4893 9.52945 12.7526 8.89368 13.2212 8.42486L14.1137 7.53236C14.6612 6.98432 15.3655 6.61993 16.1291 6.4896C16.8927 6.35927 17.678 6.46944 18.3762 6.80486L20.2925 4.88861C20.6407 4.54033 21.0542 4.26405 21.5092 4.07555C21.9642 3.88706 22.4519 3.79004 22.9444 3.79004C23.4369 3.79004 23.9246 3.88706 24.3796 4.07555C24.8346 4.26405 25.248 4.54033 25.5962 4.88861ZM14.99 13.7274L6.8825 21.8349L6.77375 21.9586C6.60673 22.1768 6.51623 22.4439 6.51625 22.7186V23.9686H7.76625L7.93125 23.9574C8.20331 23.9211 8.45589 23.7964 8.65 23.6024L16.7575 15.4961L14.99 13.7274ZM23.8275 6.65611C23.5931 6.42177 23.2752 6.29013 22.9437 6.29013C22.6123 6.29013 22.2944 6.42177 22.06 6.65611L19.4175 9.29986C19.1808 9.53649 18.8597 9.66942 18.525 9.66942C18.1903 9.66942 17.8692 9.53649 17.6325 9.29986C17.4004 9.06781 17.0857 8.93745 16.7575 8.93745C16.4293 8.93745 16.1146 9.06781 15.8825 9.29986L14.99 10.1924L20.2925 15.4961L21.185 14.6024C21.417 14.3703 21.5474 14.0555 21.5474 13.7274C21.5474 13.3992 21.417 13.0844 21.185 12.8524C20.9484 12.6156 20.8154 12.2946 20.8154 11.9599C20.8154 11.6251 20.9484 11.3041 21.185 11.0674L23.8287 8.42486C23.945 8.30877 24.0372 8.17091 24.1001 8.01916C24.163 7.86742 24.1954 7.70476 24.1954 7.54049C24.1954 7.37622 24.163 7.21356 24.1001 7.06181C24.0372 6.91006 23.9437 6.7722 23.8275 6.65611Z" fill="#D9FF85"/>
</svg>
