<svg width="30" height="31" viewBox="0 0 30 31" fill="none" xmlns="http://www.w3.org/2000/svg">
<path fill-rule="evenodd" clip-rule="evenodd" d="M13.855 4.55486C14.5049 4.34628 15.1995 4.31905 15.8638 4.47611L16.145 4.55486L24.3125 7.17486C24.55 7.25361 24.7638 7.40111 24.92 7.60736L25.0075 7.73861L28.445 13.6724C28.532 13.8222 28.5868 13.9886 28.606 14.1608C28.6253 14.333 28.6085 14.5073 28.5568 14.6727C28.5051 14.8381 28.4195 14.9909 28.3056 15.1215C28.1917 15.252 28.0519 15.3575 27.895 15.4311L27.745 15.4899L25.1813 16.3124V21.7249C25.1811 22.2197 25.034 22.7034 24.7588 23.1146C24.4835 23.5258 24.0924 23.8461 23.635 24.0349L23.445 24.1049L16.145 26.4449C15.4951 26.6534 14.8005 26.6807 14.1363 26.5236L13.855 26.4461L6.555 24.1049C6.08371 23.9535 5.66795 23.6657 5.36041 23.2778C5.05288 22.8899 4.8674 22.4195 4.8275 21.9261L4.81875 21.7236V16.3124L2.255 15.4899C2.09013 15.4369 1.93804 15.3504 1.80839 15.2356C1.67874 15.1208 1.57435 14.9803 1.50184 14.8231C1.42933 14.6658 1.39028 14.4953 1.38717 14.3221C1.38405 14.149 1.41694 13.9771 1.48375 13.8174L1.555 13.6724L4.9925 7.73861C5.12135 7.51629 5.31558 7.33908 5.54875 7.23111L5.68625 7.17486L13.855 4.55486ZM16.25 15.8811V23.7861L22.6813 21.7236V17.1149L18.8188 18.3536C18.571 18.4331 18.3047 18.4332 18.0569 18.3541C17.8091 18.2751 17.5921 18.1206 17.4363 17.9124L17.3563 17.7899L16.25 15.8811ZM13.75 15.8811L12.6438 17.7899C12.5008 18.0365 12.2778 18.2269 12.0118 18.3294C11.7458 18.432 11.4528 18.4405 11.1813 18.3536L7.31875 17.1149V21.7236L13.75 23.7874V15.8811ZM6.65 9.86236L4.49625 13.5836L10.985 15.6661L13.1413 11.9449L6.65 9.86236ZM23.35 9.86236L16.8588 11.9449L19.0138 15.6661L25.5037 13.5836L23.35 9.86236ZM15.3813 6.93486C15.1834 6.87166 14.9729 6.85877 14.7688 6.89736L14.6188 6.93486L10.1625 8.36486L15 9.91611L19.8375 8.36486L15.3813 6.93486Z" fill="#D9FF85"/>
</svg>
