<svg width="35" height="36" viewBox="0 0 35 36" fill="none" xmlns="http://www.w3.org/2000/svg">
<path fill-rule="evenodd" clip-rule="evenodd" d="M5.83333 17.8961C5.83771 17.8727 5.85813 17.7444 5.97188 17.4921C6.09729 17.2136 6.3 16.8636 6.59021 16.4596C7.17063 15.6532 8.03833 14.7213 9.135 13.8375C11.3415 12.0554 14.3092 10.6029 17.5 10.6029C20.6908 10.6029 23.6585 12.0554 25.865 13.8346C26.9617 14.7184 27.8294 15.6502 28.4098 16.4567C28.7015 16.8607 28.9027 17.2107 29.0281 17.4892C29.1419 17.7415 29.1623 17.8698 29.1667 17.8932V17.8946C29.1623 17.9179 29.1419 18.0463 29.0281 18.2986C28.8556 18.6618 28.6485 19.0075 28.4098 19.3311C27.8294 20.1375 26.9617 21.0694 25.865 21.9532C23.66 23.7338 20.6923 25.1863 17.5 25.1863C14.3077 25.1863 11.3415 23.7338 9.135 21.9546C8.03833 21.0709 7.17063 20.139 6.59021 19.3325C6.3507 19.0095 6.14359 18.6637 5.97188 18.3C5.90612 18.1729 5.85944 18.0368 5.83333 17.8961ZM17.5 7.68628C13.4415 7.68628 9.84667 9.51503 7.30479 11.564C6.02583 12.5936 4.97146 13.7136 4.22333 14.7534C3.86777 15.2337 3.56235 15.7493 3.31188 16.2919C3.09604 16.7717 2.91667 17.3273 2.91667 17.8946C2.91667 18.4604 3.09604 19.019 3.31042 19.4973C3.53646 19.9961 3.85 20.5182 4.22333 21.0359C4.97146 22.0757 6.02583 23.1942 7.30479 24.2252C9.84667 26.2742 13.4415 28.1029 17.5 28.1029C21.5585 28.1029 25.1533 26.2742 27.6952 24.2252C28.9742 23.1957 30.0285 22.0757 30.7767 21.0359C31.1515 20.5167 31.4635 19.9961 31.6881 19.4973C31.904 19.019 32.0833 18.4619 32.0833 17.8946C32.0833 17.3288 31.904 16.7702 31.6896 16.2919C31.4369 15.7501 31.1311 15.2348 30.7767 14.7534C30.0285 13.7136 28.9742 12.595 27.6952 11.564C25.1533 9.51503 21.5585 7.68628 17.5 7.68628ZM16.0417 17.8946C16.0417 17.5078 16.1953 17.1369 16.4688 16.8634C16.7423 16.5899 17.1132 16.4363 17.5 16.4363C17.8868 16.4363 18.2577 16.5899 18.5312 16.8634C18.8047 17.1369 18.9583 17.5078 18.9583 17.8946C18.9583 18.2814 18.8047 18.6523 18.5312 18.9258C18.2577 19.1993 17.8868 19.3529 17.5 19.3529C17.1132 19.3529 16.7423 19.1993 16.4688 18.9258C16.1953 18.6523 16.0417 18.2814 16.0417 17.8946ZM17.5 13.5196C16.3397 13.5196 15.2269 13.9805 14.4064 14.801C13.5859 15.6215 13.125 16.7343 13.125 17.8946C13.125 19.0549 13.5859 20.1677 14.4064 20.9882C15.2269 21.8087 16.3397 22.2696 17.5 22.2696C18.6603 22.2696 19.7731 21.8087 20.5936 20.9882C21.4141 20.1677 21.875 19.0549 21.875 17.8946C21.875 16.7343 21.4141 15.6215 20.5936 14.801C19.7731 13.9805 18.6603 13.5196 17.5 13.5196Z" fill="#D9FF85"/>
</svg>
