<svg width="35" height="36" viewBox="0 0 35 36" fill="none" xmlns="http://www.w3.org/2000/svg">
<path fill-rule="evenodd" clip-rule="evenodd" d="M8.75 4.76953C7.97645 4.76953 7.23458 5.07682 6.6876 5.6238C6.14062 6.17078 5.83333 6.91265 5.83333 7.6862V31.0195C5.83333 31.4063 5.98698 31.7772 6.26047 32.0507C6.53396 32.3242 6.90489 32.4779 7.29167 32.4779C7.67844 32.4779 8.04937 32.3242 8.32286 32.0507C8.59635 31.7772 8.75 31.4063 8.75 31.0195V23.7279H28.8808C29.1768 23.728 29.467 23.6462 29.7194 23.4916C29.9718 23.337 30.1764 23.1156 30.3108 22.8519C30.4451 22.5882 30.5039 22.2924 30.4806 21.9974C30.4573 21.7024 30.3528 21.4195 30.1787 21.1802L25.1358 14.2487L30.1758 7.31724C30.3498 7.07799 30.4543 6.79528 30.4777 6.50037C30.501 6.20545 30.4424 5.90982 30.3082 5.64616C30.174 5.3825 29.9696 5.16108 29.7174 5.00637C29.4652 4.85166 29.1752 4.76969 28.8794 4.76953H8.75ZM8.75 20.8112V7.6862H26.3025L22.4671 12.9624C22.1953 13.3363 22.049 13.7865 22.049 14.2487C22.049 14.7109 22.1953 15.1611 22.4671 15.5349L26.301 20.8112H8.75Z" fill="#D9FF85"/>
</svg>
