<svg width="35" height="36" viewBox="0 0 35 36" fill="none" xmlns="http://www.w3.org/2000/svg">
<path fill-rule="evenodd" clip-rule="evenodd" d="M26.9704 5.93771C30.0256 7.71833 32.1752 11.3335 32.0804 15.551C31.9623 20.8156 27.8658 25.459 20.8819 29.6065C19.8465 30.2219 18.7556 31.0196 17.5 31.0196C16.2677 31.0196 15.1302 30.2073 14.1167 29.605C7.13563 25.459 3.03771 20.8142 2.91958 15.551C2.82479 11.3335 4.97438 7.71979 8.02958 5.93771C10.8879 4.27375 14.4783 4.26354 17.5 6.72083C20.5217 4.26354 24.1121 4.27229 26.9704 5.93771ZM25.5019 8.45916C23.469 7.275 20.9285 7.31729 18.7294 9.54271C18.5681 9.70453 18.3766 9.83293 18.1656 9.92054C17.9546 10.0082 17.7284 10.0533 17.5 10.0533C17.2716 10.0533 17.0454 10.0082 16.8344 9.92054C16.6235 9.83293 16.4319 9.70453 16.2706 9.54271C14.0715 7.31729 11.531 7.275 9.49813 8.45916C7.39229 9.68708 5.76479 12.2917 5.83625 15.4883C5.91792 19.1502 8.81125 23.0629 15.6071 27.0996C16.2021 27.454 16.8233 27.9075 17.5 28.0956C18.1767 27.9075 18.7979 27.454 19.3929 27.0996C26.1888 23.0629 29.0821 19.1517 29.1637 15.4869C29.2367 12.2931 27.6077 9.68708 25.5019 8.45916Z" fill="#D9FF85"/>
</svg>
