<svg width="75" height="16" viewBox="0 0 75 16" fill="none" xmlns="http://www.w3.org/2000/svg">
<path d="M31.2683 3.60486C30.7163 3.20307 30.0571 3.00022 29.2906 3.00022C28.7327 3.00022 28.251 3.1153 27.8414 3.3435C27.4318 3.57365 27.0983 3.91693 26.8389 4.37529C26.5794 4.83364 26.3863 5.39732 26.2635 6.06633L26.0041 6.02927L26.0236 3.24208H23.9054L23.8878 7.9056L23.9054 15.92H26.4332V13.4605C26.4332 13.1504 26.4137 12.8227 26.3766 12.4755C26.3395 12.1283 26.2888 11.7636 26.2284 11.3793C26.1659 10.9951 26.0977 10.6167 26.0236 10.2461H26.3395C26.4761 10.8664 26.6809 11.4008 26.952 11.8533C27.225 12.3058 27.5586 12.6491 27.9545 12.8851C28.3504 13.1211 28.8342 13.2381 29.4037 13.2381C30.1468 13.2381 30.7905 13.0333 31.3366 12.6257C31.8808 12.2161 32.3021 11.631 32.6005 10.8703C32.8969 10.1077 33.0471 9.2007 33.0471 8.14746C33.0471 7.09421 32.8891 6.12874 32.5732 5.36026C32.2572 4.59179 31.8242 4.00665 31.2722 3.60486H31.2683ZM30.1624 9.75462C30.0005 10.2071 29.784 10.5543 29.5129 10.7942C29.2399 11.0361 28.9063 11.157 28.5104 11.157C28.251 11.157 28.0091 11.0946 27.7848 10.9717C27.5625 10.8488 27.3733 10.6869 27.2172 10.488C27.0632 10.289 26.9227 10.0667 26.7998 9.81899C26.675 9.57128 26.5853 9.31772 26.5307 9.05636C26.4741 8.79695 26.4468 8.5434 26.4468 8.29374V8.01482C26.4468 7.6813 26.4878 7.34387 26.5677 7.00254C26.6477 6.66121 26.7745 6.35499 26.9481 6.08193C27.1217 5.80887 27.3382 5.58262 27.5976 5.40317C27.857 5.22373 28.1554 5.13401 28.4889 5.13401C28.8732 5.13401 29.2047 5.25884 29.4837 5.50655C29.7626 5.75426 29.9849 6.10144 30.1527 6.54614C30.3204 6.99279 30.4043 7.53111 30.4043 8.16306C30.4043 8.795 30.3243 9.30017 30.1624 9.75072V9.75462Z" fill="#D9FF85"/>
<path d="M41.8866 10.3866C41.8749 9.93406 41.8612 9.51082 41.8495 9.11488V7.20149C41.8495 6.23602 41.711 5.44804 41.4321 4.84145C41.1532 4.23486 40.728 3.7726 40.1585 3.45663C39.5889 3.14066 38.8575 2.98267 37.9662 2.98267C37.3966 2.98267 36.8603 3.04703 36.359 3.17771C35.8577 3.30839 35.4208 3.50929 35.0483 3.78235C34.6777 4.05542 34.3754 4.40845 34.1472 4.84145C33.917 5.27445 33.7668 5.76986 33.6927 6.32769L35.9786 6.79189C36.0274 6.3706 36.1386 6.02732 36.3122 5.76011C36.4858 5.4929 36.7179 5.29785 37.0085 5.17497C37.2991 5.05209 37.5936 4.98968 37.8901 4.98968C38.3601 4.98968 38.7229 5.10671 38.9765 5.34271C39.23 5.57871 39.3568 5.89469 39.3568 6.29063C39.3568 6.52663 39.2944 6.70802 39.1715 6.8387C39.0487 6.96938 38.8517 7.07471 38.5864 7.15468C38.3192 7.23465 37.9584 7.31266 37.5 7.38678C36.9168 7.51161 36.3726 7.64034 35.8655 7.77687C35.3584 7.9134 34.9215 8.09869 34.5548 8.3347C34.1901 8.5707 33.9053 8.86717 33.7005 9.22605C33.4957 9.58494 33.3943 10.0316 33.3943 10.5641C33.3943 11.1843 33.5152 11.6856 33.7571 12.0698C33.9989 12.454 34.3247 12.7486 34.7323 12.9514C35.1419 13.1562 35.5925 13.2576 36.0879 13.2576C36.6945 13.2576 37.2152 13.1367 37.6482 12.8948C38.0812 12.653 38.444 12.3273 38.7346 11.9196C39.0253 11.51 39.234 11.04 39.3568 10.5075H39.6357C39.6357 10.9541 39.6474 11.3813 39.6728 11.7889C39.6982 12.1985 39.7294 12.6003 39.7664 12.9963H42.0153C41.9899 12.575 41.9665 12.1478 41.9412 11.7148C41.9158 11.2818 41.8983 10.8391 41.8846 10.3866H41.8866ZM39.0331 10.1447C38.879 10.3866 38.6917 10.6031 38.4752 10.7942C38.2587 10.9873 38.0383 11.1199 37.816 11.1941C37.5936 11.2682 37.3518 11.3052 37.0924 11.3052C36.7452 11.3052 36.4565 11.2058 36.2283 11.0088C35.9982 10.8098 35.885 10.5251 35.885 10.1545C35.885 9.84434 35.9552 9.60249 36.0976 9.4289C36.24 9.25531 36.4292 9.11683 36.6652 9.0115C36.9012 8.90618 37.1665 8.82036 37.4649 8.75209C37.7614 8.68383 38.0598 8.61556 38.3562 8.5473C38.6527 8.47903 38.9316 8.39906 39.193 8.30544C39.2593 8.28204 39.3217 8.25473 39.3841 8.22547L39.3978 9.24361C39.31 9.60249 39.191 9.90286 39.035 10.1447H39.0331Z" fill="#D9FF85"/>
<path d="M48.3679 3.00022C47.8218 3.00022 47.3517 3.13285 46.9558 3.40006C46.5598 3.66728 46.2497 4.08077 46.0274 4.64445C45.805 5.20813 45.6626 5.93565 45.6002 6.827H45.2842L45.3018 3.24013H43.1661L43.1485 8.03433V12.9943H45.7504V8.795C45.7992 8.126 45.9201 7.56232 46.1132 7.10397C46.3043 6.64561 46.5657 6.29843 46.8934 6.06438C47.221 5.82837 47.5955 5.71135 48.0168 5.71135C48.1904 5.71135 48.3718 5.72695 48.5649 5.75816C48.756 5.78936 48.9452 5.84788 49.1325 5.9337L49.2632 3.18356C49.0896 3.12115 48.9316 3.07434 48.7892 3.04508C48.6468 3.01388 48.5064 2.99827 48.3718 2.99827L48.3679 3.00022Z" fill="#D9FF85"/>
<path d="M55.7289 10.1915C55.6119 10.5251 55.4188 10.7962 55.1535 10.999C54.8863 11.2038 54.5255 11.3052 54.0671 11.3052C53.6088 11.3052 53.1992 11.1824 52.8773 10.9327C52.5555 10.685 52.3137 10.3164 52.1537 9.82679C51.9918 9.33723 51.9119 8.76575 51.9119 8.10845C51.9119 7.60133 51.9548 7.15468 52.0425 6.77044C52.1284 6.3862 52.259 6.06438 52.4326 5.80497C52.6062 5.54556 52.813 5.35051 53.0548 5.21983C53.2967 5.08915 53.5717 5.02479 53.8818 5.02479C54.229 5.02479 54.5255 5.09891 54.7732 5.24714C55.0209 5.39537 55.2159 5.61577 55.3583 5.90639C55.5007 6.19701 55.5787 6.54809 55.5904 6.95573L57.9504 6.3979C57.9017 5.75426 57.7203 5.17497 57.4121 4.66005C57.102 4.14709 56.6651 3.73944 56.1014 3.44297C55.5377 3.14651 54.8219 2.99632 53.9559 2.99632C53.1875 2.99632 52.5165 3.12895 51.9392 3.39616C51.3638 3.66338 50.8801 4.03201 50.49 4.50207C50.0999 4.97213 49.8112 5.5241 49.6259 6.15605C49.4406 6.78799 49.347 7.48235 49.347 8.23718C49.347 8.93153 49.4406 9.58493 49.6259 10.1974C49.8112 10.8098 50.096 11.3462 50.4802 11.8045C50.8645 12.2629 51.3501 12.6198 51.9392 12.8734C52.5282 13.1269 53.2304 13.2537 54.0476 13.2537C54.742 13.2537 55.3544 13.1543 55.8869 12.9573C56.4193 12.7583 56.8563 12.4833 57.1976 12.1303C57.5389 11.7772 57.7866 11.3774 57.9407 10.9327C58.0948 10.486 58.1787 10.0101 58.1923 9.50302L55.9259 9.16949C55.9142 9.51667 55.8479 9.85605 55.7308 10.1915H55.7289Z" fill="#D9FF85"/>
<path d="M64.9623 10.2832C64.8823 10.4938 64.7731 10.6713 64.6366 10.8118C64.5001 10.9542 64.3245 11.079 64.108 11.1843C63.8915 11.2896 63.6165 11.3423 63.281 11.3423C62.5633 11.3423 62.0152 11.0887 61.6368 10.5797C61.3072 10.135 61.1199 9.46791 61.079 8.5785L67.2755 8.47903C67.338 7.66179 67.2931 6.90892 67.1449 6.22236C66.9966 5.53581 66.7489 4.95262 66.4017 4.47671C66.0546 4.0008 65.6099 3.63217 65.0637 3.37081C64.5196 3.1114 63.8681 2.98072 63.1133 2.98072C62.3585 2.98072 61.7109 3.1231 61.1336 3.40787C60.5582 3.69263 60.0803 4.07297 59.7039 4.55083C59.3255 5.02869 59.0466 5.58262 58.8672 6.21456C58.6877 6.84651 58.598 7.54087 58.598 8.29569C58.598 9.05051 58.6936 9.68246 58.8867 10.3027C59.0778 10.9229 59.3723 11.4476 59.7683 11.8826C60.1642 12.3156 60.6518 12.653 61.2272 12.8948C61.8026 13.1367 62.493 13.2576 63.2986 13.2576C63.9929 13.2576 64.5859 13.1699 65.0813 12.9982C65.5767 12.8246 65.9883 12.5828 66.3159 12.2727C66.6436 11.9625 66.8952 11.6095 67.0688 11.2136C67.2424 10.8176 67.3477 10.4022 67.3848 9.96917L65.1183 9.59664C65.093 9.84435 65.0403 10.0745 64.9604 10.2832H64.9623ZM62.0093 5.37002C62.3136 5.11646 62.6939 4.98968 63.1523 4.98968C63.5248 4.98968 63.8545 5.0989 64.147 5.3154C64.4376 5.5319 64.6541 5.84398 64.7965 6.25357C64.8823 6.49933 64.9311 6.79384 64.9428 7.13517L61.1453 7.18979C61.1862 6.93038 61.2409 6.68657 61.315 6.46812C61.4749 5.99221 61.709 5.62553 62.0113 5.37197L62.0093 5.37002Z" fill="#D9FF85"/>
<path d="M74.0241 3.04703C73.8817 3.01583 73.7413 3.00022 73.6067 3.00022C73.0606 3.00022 72.5905 3.13285 72.1946 3.40006C71.7986 3.66728 71.4885 4.08077 71.2662 4.64445C71.0438 5.20813 70.9014 5.93565 70.839 6.827H70.523L70.5406 3.24013H68.4029L68.3853 8.03433V12.9943H70.9873V8.795C71.036 8.126 71.1569 7.56232 71.35 7.10397C71.5412 6.64561 71.8025 6.29843 72.1302 6.06438C72.4579 5.82837 72.8324 5.71135 73.2537 5.71135C73.4273 5.71135 73.6087 5.72695 73.8017 5.75816C73.9929 5.78936 74.1821 5.84788 74.3693 5.9337L74.5 3.18356C74.3264 3.12115 74.1684 3.07434 74.026 3.04508L74.0241 3.04703Z" fill="#D9FF85"/>
<path d="M9.27702 11.0439C13.0472 11.0439 16.1036 9.734 16.1036 8.1182C16.1036 6.50239 13.0472 5.19253 9.27702 5.19253C5.50681 5.19253 2.45045 6.50239 2.45045 8.1182C2.45045 9.734 5.50681 11.0439 9.27702 11.0439Z" fill="#D9FF85"/>
<path d="M9.27702 4.2173C12.7586 4.2173 15.889 2.71156 18.054 0.316406H0.5C2.665 2.71156 5.79547 4.2173 9.27702 4.2173Z" fill="#D9FF85"/>
<path d="M9.27702 12.0191C5.79547 12.0191 2.665 13.5248 0.5 15.92H18.054C15.891 13.5248 12.7586 12.0191 9.27702 12.0191Z" fill="#D9FF85"/>
</svg>
