<svg width="30" height="31" viewBox="0 0 30 31" fill="none" xmlns="http://www.w3.org/2000/svg">
<path fill-rule="evenodd" clip-rule="evenodd" d="M24.4638 5.15229L25.3475 6.03604C26.0505 6.73926 26.4455 7.69292 26.4455 8.68729C26.4455 9.68165 26.0505 10.6353 25.3475 11.3385L21.6288 15.0573L25.6063 19.0348C25.8385 19.2669 26.0227 19.5426 26.1484 19.846C26.2741 20.1493 26.3388 20.4745 26.3388 20.8029C26.3388 21.1313 26.2741 21.4565 26.1484 21.7599C26.0227 22.0632 25.8385 22.3389 25.6063 22.571L22.0713 26.106C21.8391 26.3383 21.5635 26.5225 21.2601 26.6482C20.9567 26.7739 20.6315 26.8386 20.3031 26.8386C19.9747 26.8386 19.6496 26.7739 19.3462 26.6482C19.0428 26.5225 18.7672 26.3383 18.535 26.106L14.5575 22.1285L11.6038 25.0835C11.3134 25.374 10.9357 25.5611 10.5288 25.616L5.62875 26.2785C5.43768 26.3046 5.24315 26.2862 5.0604 26.2246C4.87765 26.163 4.71163 26.0599 4.57533 25.9235C4.43902 25.7871 4.33613 25.621 4.27471 25.4382C4.21328 25.2554 4.19499 25.0608 4.22125 24.8698L4.88375 19.971C4.93873 19.5641 5.12581 19.1864 5.41625 18.896L8.37125 15.9423L4.39375 11.9648C4.1615 11.7326 3.97726 11.457 3.85156 11.1536C3.72586 10.8502 3.66116 10.5251 3.66116 10.1967C3.66116 9.86827 3.72586 9.5431 3.85156 9.23972C3.97726 8.93634 4.1615 8.6607 4.39375 8.42854L7.92875 4.89354C8.16091 4.66128 8.43655 4.47704 8.73993 4.35134C9.04331 4.22564 9.36849 4.16094 9.69688 4.16094C10.0253 4.16094 10.3504 4.22564 10.6538 4.35134C10.9572 4.47704 11.2328 4.66128 11.465 4.89354L15.4425 8.87104L19.16 5.15229C19.5082 4.804 19.9217 4.52772 20.3767 4.33922C20.8317 4.15073 21.3194 4.05371 21.8119 4.05371C22.3044 4.05371 22.7921 4.15073 23.2471 4.33922C23.7021 4.52772 24.1155 4.804 24.4638 5.15229ZM19.8613 16.826L16.3263 20.361L16.7675 20.8035L17.6513 19.9198C17.8757 19.6932 18.1782 19.561 18.4969 19.5502C18.8157 19.5394 19.1265 19.6508 19.3657 19.8616C19.605 20.0725 19.7546 20.3668 19.784 20.6843C19.8134 21.0019 19.7203 21.3186 19.5238 21.5698L19.42 21.6873L18.5363 22.571L20.3038 24.3385L23.8388 20.8035L19.8613 16.826ZM18.2763 9.57104L7.3325 20.5148L6.91875 23.581L9.985 23.166L20.9288 12.2235L18.2763 9.57104ZM9.69625 6.66229L6.1625 10.196L7.93 11.9648L8.81375 11.081C9.03818 10.8545 9.34071 10.7222 9.65944 10.7114C9.97816 10.7006 10.289 10.812 10.5282 11.0229C10.7675 11.2337 10.9171 11.528 10.9465 11.8456C10.9759 12.1631 10.8828 12.4799 10.6863 12.731L10.5813 12.8485L9.6975 13.7323L10.14 14.1735L13.675 10.6385L9.69625 6.66229ZM20.9288 6.92104L20.045 7.80479L22.695 10.456L23.58 9.57229C23.8143 9.33788 23.946 9.01999 23.946 8.68854C23.946 8.35708 23.8143 8.0392 23.58 7.80479L22.6963 6.92104C22.4618 6.6867 22.144 6.55505 21.8125 6.55505C21.481 6.55505 21.1632 6.6867 20.9288 6.92104Z" fill="#191919"/>
</svg>
