<svg width="24" height="25" viewBox="0 0 24 25" fill="none" xmlns="http://www.w3.org/2000/svg">
<path d="M6.85701 2.76187C8.12001 3.68287 9.07601 4.97687 9.89001 6.16587L10.528 7.10387C10.7261 7.39343 10.8168 7.74315 10.7843 8.09249C10.7518 8.44184 10.5982 8.76883 10.35 9.01687L8.99401 10.3729L9.13701 10.6769C9.48701 11.3859 10.091 12.4069 11 13.3169C11.6287 13.9339 12.3361 14.4652 13.104 14.8969L13.471 15.0939L13.798 15.2559L13.944 15.3229L15.299 13.9669C15.5478 13.7178 15.8763 13.5642 16.2269 13.533C16.5776 13.5017 16.9281 13.5948 17.217 13.7959L18.231 14.4989C19.383 15.3089 20.586 16.2319 21.521 17.4299C21.6826 17.6378 21.7854 17.8853 21.8187 18.1465C21.8519 18.4077 21.8144 18.6731 21.71 18.9149C20.873 20.8679 18.755 22.5309 16.552 22.4489L16.252 22.4329L16.019 22.4129L15.761 22.3829L15.48 22.3449L15.175 22.2939L14.849 22.2299L14.503 22.1529L14.137 22.0589L13.752 21.9489L13.35 21.8189C11.504 21.1929 9.16101 19.9629 6.75701 17.5589C4.35301 15.1549 3.12401 12.8129 2.49801 10.9669L2.36801 10.5649L2.25801 10.1799L2.16401 9.81387L2.08601 9.46787C2.0635 9.3595 2.0425 9.25082 2.02301 9.14187L1.97301 8.83687L1.93301 8.55587L1.90401 8.29787L1.88401 8.06487L1.86801 7.76487C1.78701 5.56887 3.46801 3.43587 5.41201 2.60287C5.64598 2.50183 5.90221 2.46337 6.15554 2.49124C6.40887 2.51912 6.6506 2.61238 6.85701 2.76187ZM5.93001 4.56987C4.85801 5.12987 3.82001 6.40987 3.86701 7.69087L3.88701 8.01887L3.90901 8.22387L3.93801 8.45387L3.97801 8.70687L4.02901 8.98387L4.09401 9.28187L4.17401 9.60187L4.27001 9.94087L4.38401 10.2989C4.42601 10.4209 4.47067 10.5459 4.51801 10.6739L4.67201 11.0659L4.84801 11.4729C5.47601 12.8549 6.50001 14.4729 8.17301 16.1449C9.84501 17.8169 11.463 18.8419 12.845 19.4699L13.252 19.6459L13.644 19.7999C13.772 19.8479 13.897 19.8925 14.019 19.9339L14.377 20.0479L14.717 20.1439L15.036 20.2239L15.334 20.2889L15.611 20.3399L15.865 20.3799L16.095 20.4099L16.299 20.4299L16.627 20.4499C17.891 20.4969 19.181 19.4649 19.739 18.4069C19.027 17.5719 18.143 16.8869 17.168 16.1969L16.42 15.6759L16.23 15.8749L15.824 16.3179L15.609 16.5439C15.023 17.1409 14.339 17.6479 13.519 17.3169L13.293 17.2219L13.017 17.0979L12.863 17.0249L12.525 16.8559L12.154 16.6559C11.216 16.132 10.3526 15.4846 9.58701 14.7309C8.83332 13.9652 8.18587 13.1018 7.66201 12.1639L7.46201 11.7939L7.29201 11.4549L7.09601 11.0249L7.00001 10.7969C6.68901 10.0279 7.11701 9.37887 7.66401 8.81687L7.88801 8.59687L8.44501 8.08387L8.64501 7.89387L8.17201 7.20087C7.46901 6.18087 6.78201 5.26087 5.92901 4.56887L5.93001 4.56987ZM14.993 6.35687L15.109 6.36987C15.8369 6.49826 16.5055 6.85381 17.0189 7.38554C17.5323 7.91728 17.8642 8.5979 17.967 9.32987C18.0037 9.58305 17.9419 9.84064 17.7944 10.0497C17.6469 10.2587 17.4249 10.4032 17.1741 10.4536C16.9233 10.5039 16.6627 10.4562 16.446 10.3203C16.2293 10.1844 16.0729 9.97058 16.009 9.72287L15.986 9.60787C15.9458 9.32097 15.8233 9.05186 15.6334 8.83305C15.4436 8.61425 15.1944 8.45511 14.916 8.37487L14.761 8.33987C14.5099 8.29536 14.2853 8.1566 14.1331 7.95197C13.9809 7.74734 13.9127 7.4923 13.9423 7.23901C13.9719 6.98572 14.0972 6.75332 14.2925 6.58935C14.4878 6.42537 14.7384 6.34221 14.993 6.35687ZM15 3.31687C16.5913 3.31687 18.1174 3.94901 19.2426 5.07423C20.3679 6.19944 21 7.72557 21 9.31687C20.9997 9.57175 20.9021 9.8169 20.7272 10.0022C20.5522 10.1876 20.3131 10.2991 20.0586 10.314C19.8042 10.329 19.5536 10.2462 19.3582 10.0826C19.1627 9.91901 19.0371 9.68696 19.007 9.43387L19 9.31687C18.9999 8.30142 18.6136 7.32403 17.9195 6.5829C17.2253 5.84177 16.2753 5.39238 15.262 5.32587L15 5.31687C14.7348 5.31687 14.4804 5.21151 14.2929 5.02397C14.1054 4.83644 14 4.58208 14 4.31687C14 4.05165 14.1054 3.7973 14.2929 3.60976C14.4804 3.42222 14.7348 3.31687 15 3.31687Z" fill="black"/>
</svg>
