<svg width="35" height="36" viewBox="0 0 35 36" fill="none" xmlns="http://www.w3.org/2000/svg">
<path d="M5.83333 22.9986C6.41349 22.9986 6.96989 23.2291 7.38013 23.6393C7.79036 24.0496 8.02083 24.606 8.02083 25.1861V27.3736H10.2083C10.7885 27.3736 11.3449 27.6041 11.7551 28.0143C12.1654 28.4246 12.3958 28.981 12.3958 29.5611C12.3958 30.1413 12.1654 30.6977 11.7551 31.1079C11.3449 31.5181 10.7885 31.7486 10.2083 31.7486H7.29167C6.32473 31.7486 5.3974 31.3645 4.71367 30.6808C4.02995 29.9971 3.64583 29.0697 3.64583 28.1028V25.1861C3.64583 24.606 3.8763 24.0496 4.28654 23.6393C4.69677 23.2291 5.25317 22.9986 5.83333 22.9986ZM29.1667 22.9986C29.7105 22.9986 30.2347 23.2012 30.6373 23.5668C31.0398 23.9324 31.2918 24.4348 31.344 24.9761L31.3542 25.1861V28.1028C31.3543 29.0284 31.0024 29.9194 30.3697 30.5951C29.7371 31.2708 28.8711 31.6806 27.9475 31.7413L27.7083 31.7486H24.7917C24.2299 31.7483 23.6898 31.5319 23.2832 31.1443C22.8766 30.7566 22.6348 30.2274 22.6078 29.6662C22.5808 29.1051 22.7707 28.5551 23.1382 28.1302C23.5056 27.7053 24.0225 27.438 24.5817 27.3838L24.7917 27.3736H26.9792V25.1861C26.9792 24.606 27.2096 24.0496 27.6199 23.6393C28.0301 23.2291 28.5865 22.9986 29.1667 22.9986ZM21.0729 20.082C21.489 19.6855 22.0445 19.4687 22.6191 19.4785C23.1938 19.4883 23.7415 19.7239 24.1439 20.1343C24.5463 20.5447 24.7709 21.097 24.7693 21.6717C24.7678 22.2465 24.54 22.7975 24.1354 23.2057C22.3652 24.9452 19.9818 25.9184 17.5 25.9153C14.9173 25.9153 12.5708 24.8799 10.8646 23.2057C10.6547 23.0057 10.4867 22.766 10.3702 22.5006C10.2538 22.2351 10.1913 21.9491 10.1863 21.6592C10.1814 21.3694 10.2341 21.0814 10.3414 20.8121C10.4488 20.5428 10.6085 20.2976 10.8115 20.0905C11.0144 19.8835 11.2565 19.7189 11.5236 19.6063C11.7907 19.4937 12.0776 19.4353 12.3675 19.4345C12.6574 19.4337 12.9445 19.4905 13.2123 19.6016C13.48 19.7128 13.723 19.8761 13.9271 20.082C14.8502 20.9861 16.1087 21.5403 17.5 21.5403C18.8912 21.5403 20.1498 20.9861 21.0729 20.082ZM13.125 12.0611C13.8985 12.0611 14.6404 12.3684 15.1874 12.9154C15.7344 13.4624 16.0417 14.2042 16.0417 14.9778C16.0417 15.7513 15.7344 16.4932 15.1874 17.0402C14.6404 17.5872 13.8985 17.8945 13.125 17.8945C12.3515 17.8945 11.6096 17.5872 11.0626 17.0402C10.5156 16.4932 10.2083 15.7513 10.2083 14.9778C10.2083 14.2042 10.5156 13.4624 11.0626 12.9154C11.6096 12.3684 12.3515 12.0611 13.125 12.0611ZM21.875 12.0611C22.6485 12.0611 23.3904 12.3684 23.9374 12.9154C24.4844 13.4624 24.7917 14.2042 24.7917 14.9778C24.7917 15.7513 24.4844 16.4932 23.9374 17.0402C23.3904 17.5872 22.6485 17.8945 21.875 17.8945C21.1015 17.8945 20.3596 17.5872 19.8126 17.0402C19.2656 16.4932 18.9583 15.7513 18.9583 14.9778C18.9583 14.2042 19.2656 13.4624 19.8126 12.9154C20.3596 12.3684 21.1015 12.0611 21.875 12.0611ZM10.2083 4.04028C10.7701 4.04056 11.3102 4.25696 11.7168 4.64463C12.1234 5.0323 12.3652 5.56153 12.3922 6.12266C12.4192 6.68378 12.2293 7.23379 11.8618 7.6587C11.4943 8.08362 10.9775 8.35087 10.4183 8.40508L10.2083 8.41528H8.02083V10.6028C8.02055 11.1646 7.80416 11.7047 7.41649 12.1113C7.02881 12.5178 6.49958 12.7597 5.93846 12.7867C5.37733 12.8137 4.82733 12.6238 4.40241 12.2563C3.9775 11.8888 3.71025 11.3719 3.65604 10.8128L3.64583 10.6028V7.68612C3.64569 6.76049 3.99763 5.86945 4.63027 5.19376C5.2629 4.51806 6.12886 4.1083 7.0525 4.04758L7.29167 4.04028H10.2083ZM27.7083 4.04028C28.634 4.04014 29.525 4.39208 30.2007 5.02472C30.8764 5.65735 31.2862 6.52331 31.3469 7.44695L31.3542 7.68612V10.6028C31.3539 11.1646 31.1375 11.7047 30.7498 12.1113C30.3621 12.5178 29.8329 12.7597 29.2718 12.7867C28.7107 12.8137 28.1607 12.6238 27.7357 12.2563C27.3108 11.8888 27.0436 11.3719 26.9894 10.8128L26.9792 10.6028V8.41528H24.7917C24.2299 8.41501 23.6898 8.19861 23.2832 7.81094C22.8766 7.42326 22.6348 6.89403 22.6078 6.33291C22.5808 5.77178 22.7707 5.22178 23.1382 4.79686C23.5056 4.37195 24.0225 4.1047 24.5817 4.05049L24.7917 4.04028H27.7083Z" fill="#D9FF85"/>
</svg>
