<svg width="30" height="31" viewBox="0 0 30 31" fill="none" xmlns="http://www.w3.org/2000/svg">
<path d="M15 2.90308C21.9038 2.90308 27.5 8.49933 27.5 15.4031C27.5 22.3068 21.9038 27.9031 15 27.9031C8.09625 27.9031 2.5 22.3068 2.5 15.4031C2.5 8.49933 8.09625 2.90308 15 2.90308ZM15 5.40308C12.3478 5.40308 9.8043 6.45665 7.92893 8.33201C6.05357 10.2074 5 12.7509 5 15.4031C5 18.0552 6.05357 20.5988 7.92893 22.4741C9.8043 24.3495 12.3478 25.4031 15 25.4031C17.6522 25.4031 20.1957 24.3495 22.0711 22.4741C23.9464 20.5988 25 18.0552 25 15.4031C25 12.7509 23.9464 10.2074 22.0711 8.33201C20.1957 6.45665 17.6522 5.40308 15 5.40308ZM19.4188 10.8793C19.6432 10.6528 19.9457 10.5205 20.2644 10.5097C20.5832 10.4989 20.894 10.6103 21.1332 10.8212C21.3725 11.032 21.5221 11.3263 21.5515 11.6439C21.5809 11.9614 21.4878 12.2782 21.2913 12.5293L21.1875 12.6468L14.205 19.6306C13.9667 19.8689 13.6492 20.0113 13.3127 20.0309C12.9763 20.0505 12.6444 19.9458 12.38 19.7368L12.26 19.6306L8.8125 16.1831C8.58593 15.9587 8.45371 15.6561 8.4429 15.3374C8.43208 15.0187 8.5435 14.7079 8.75433 14.4686C8.96517 14.2293 9.25948 14.0797 9.57703 14.0503C9.89458 14.0209 10.2113 14.1141 10.4625 14.3106L10.58 14.4156L13.2325 17.0668L19.42 10.8793H19.4188Z" fill="#191919"/>
</svg>
