<svg width="30" height="31" viewBox="0 0 30 31" fill="none" xmlns="http://www.w3.org/2000/svg">
<path d="M15 2.90308C21.9038 2.90308 27.5 8.49933 27.5 15.4031C27.5 22.3068 21.9038 27.9031 15 27.9031C8.09625 27.9031 2.5 22.3068 2.5 15.4031C2.5 8.49933 8.09625 2.90308 15 2.90308ZM15 5.40308C12.3478 5.40308 9.8043 6.45665 7.92893 8.33201C6.05357 10.2074 5 12.7509 5 15.4031C5 18.0552 6.05357 20.5988 7.92893 22.4741C9.8043 24.3495 12.3478 25.4031 15 25.4031C17.6522 25.4031 20.1957 24.3495 22.0711 22.4741C23.9464 20.5988 25 18.0552 25 15.4031C25 12.7509 23.9464 10.2074 22.0711 8.33201C20.1957 6.45665 17.6522 5.40308 15 5.40308ZM12.3488 10.9831L15 13.6356L17.6513 10.9831C17.7674 10.8669 17.9053 10.7748 18.057 10.712C18.2087 10.6491 18.3714 10.6168 18.5356 10.6168C18.6999 10.6168 18.8625 10.6491 19.0142 10.712C19.166 10.7748 19.3039 10.8669 19.42 10.9831C19.5361 11.0992 19.6283 11.2371 19.6911 11.3888C19.754 11.5406 19.7863 11.7032 19.7863 11.8675C19.7863 12.0317 19.754 12.1943 19.6911 12.3461C19.6283 12.4978 19.5361 12.6357 19.42 12.7518L16.7675 15.4018L19.42 18.0543C19.6546 18.2889 19.7863 18.607 19.7863 18.9387C19.7863 19.2704 19.6546 19.5885 19.42 19.8231C19.1855 20.0576 18.8673 20.1894 18.5356 20.1894C18.2039 20.1894 17.8858 20.0576 17.6513 19.8231L15 17.1706L12.3488 19.8231C12.1142 20.0576 11.7961 20.1894 11.4644 20.1894C11.1327 20.1894 10.8146 20.0576 10.58 19.8231C10.3455 19.5885 10.2137 19.2704 10.2137 18.9387C10.2137 18.607 10.3455 18.2889 10.58 18.0543L13.2325 15.4031L10.5813 12.7518C10.3467 12.5174 10.2149 12.1995 10.2147 11.8679C10.2146 11.5363 10.3462 11.2183 10.5806 10.9837C10.815 10.7492 11.133 10.6173 11.4646 10.6172C11.7961 10.6171 12.1142 10.7487 12.3488 10.9831Z" fill="#FF8585"/>
</svg>
